<svg width="22" height="22" viewBox="0 0 22 22" fill="none" xmlns="http://www.w3.org/2000/svg">
<path d="M18.9062 11.0001C18.9062 11.0912 18.8699 11.1787 18.8055 11.2431C18.741 11.3076 18.6536 11.3438 18.5624 11.3438H4.26756L9.86811 16.9444C9.93261 17.0089 9.96884 17.0964 9.96884 17.1876C9.96884 17.2788 9.93261 17.3663 9.86811 17.4308C9.80361 17.4953 9.71612 17.5315 9.6249 17.5315C9.53368 17.5315 9.4462 17.4953 9.3817 17.4308L3.1942 11.2433C3.16224 11.2113 3.13689 11.1734 3.11959 11.1317C3.10229 11.09 3.09338 11.0452 3.09338 11.0001C3.09338 10.9549 3.10229 10.9102 3.11959 10.8684C3.13689 10.8267 3.16224 10.7888 3.1942 10.7569L9.3817 4.56937C9.41364 4.53743 9.45155 4.51209 9.49328 4.49481C9.53501 4.47752 9.57974 4.46863 9.6249 4.46863C9.67007 4.46863 9.7148 4.47752 9.75652 4.49481C9.79825 4.51209 9.83617 4.53743 9.86811 4.56937C9.90004 4.6013 9.92538 4.63922 9.94266 4.68095C9.95995 4.72268 9.96884 4.7674 9.96884 4.81257C9.96884 4.85774 9.95995 4.90246 9.94266 4.94419C9.92538 4.98592 9.90004 5.02383 9.86811 5.05577L4.26756 10.6563H18.5624C18.6536 10.6563 18.741 10.6925 18.8055 10.757C18.8699 10.8215 18.9062 10.9089 18.9062 11.0001Z" fill="black"/>
</svg>
