<svg width="24" height="24" viewBox="0 0 24 24" fill="none" xmlns="http://www.w3.org/2000/svg">
<path d="M3.79135 11.7279C3.79135 11.6328 3.82914 11.5416 3.89639 11.4743C3.96365 11.407 4.05488 11.3693 4.15 11.3693L19.0643 11.3693L13.221 5.52603C13.1537 5.45874 13.1159 5.36746 13.1159 5.27229C13.1159 5.17712 13.1537 5.08584 13.221 5.01855C13.2883 4.95125 13.3796 4.91345 13.4748 4.91345C13.5699 4.91345 13.6612 4.95125 13.7285 5.01855L20.1841 11.4742C20.2175 11.5075 20.2439 11.547 20.262 11.5906C20.28 11.6341 20.2893 11.6808 20.2893 11.7279C20.2893 11.775 20.28 11.8217 20.262 11.8652C20.2439 11.9088 20.2175 11.9483 20.1841 11.9816L13.7285 18.4373C13.6952 18.4706 13.6556 18.497 13.6121 18.515C13.5686 18.5331 13.5219 18.5424 13.4748 18.5424C13.4276 18.5424 13.381 18.5331 13.3374 18.515C13.2939 18.497 13.2543 18.4706 13.221 18.4373C13.1877 18.4039 13.1613 18.3644 13.1432 18.3208C13.1252 18.2773 13.1159 18.2306 13.1159 18.1835C13.1159 18.1364 13.1252 18.0897 13.1432 18.0462C13.1613 18.0027 13.1877 17.9631 13.221 17.9298L19.0643 12.0865L4.15 12.0865C4.05488 12.0865 3.96365 12.0488 3.89639 11.9815C3.82914 11.9142 3.79135 11.823 3.79135 11.7279Z" fill="black"/>
</svg>
