<svg width="746" height="478" viewBox="0 0 746 478" fill="none" xmlns="http://www.w3.org/2000/svg">
<g clip-path="url(#clip0_101_1142)">
<rect width="746" height="478" fill="white"/>
<g opacity="0.5">
<path d="M662.52 373.329V350.831L703.241 329.46L725.314 340.416L662.52 373.329ZM662.52 404.193V381.736L733.56 344.475L755.593 355.389L662.52 404.193ZM662.52 342.425V309.262L695.038 325.362L662.52 342.425ZM763.838 359.487L785.616 370.277L662.52 431V412.598L763.838 359.487Z" fill="#E6F0FF"/>
<path d="M643.342 265.445L592.472 190.756L613.614 180.343L643.342 265.445ZM585.707 194.1L636.072 268.037L563.296 205.141L585.707 194.1ZM620.381 176.997L649.939 162.401V261.556L620.381 176.997ZM634.336 276.403L526.842 223.124L556.02 208.738L634.336 276.403ZM522.735 317.384V293.003H615.302L522.735 317.384ZM522.735 253.151V228.225L629.891 281.336L522.735 253.151ZM522.735 285.602V260.846L616.739 285.602H522.735ZM630.99 296.558L522.735 350.003V325.037L630.99 296.558Z" fill="#E6F0FF"/>
<path d="M256.84 105.406L307.711 180.095L286.568 190.508L256.84 105.406ZM314.475 176.751L264.111 102.814L336.887 165.709L314.475 176.751ZM279.802 193.854L250.244 208.45L250.244 109.295L279.802 193.854ZM265.846 94.4478L373.34 147.727L344.163 162.112L265.846 94.4478ZM377.447 53.4663L377.447 77.8471L284.88 77.8471L377.447 53.4663ZM377.447 117.7L377.447 142.626L270.291 89.5147L377.447 117.7ZM377.447 85.2487L377.447 110.005L283.443 85.2487L377.447 85.2487ZM269.192 74.2924L377.447 20.8471L377.447 45.8137L269.192 74.2924Z" fill="#E6F0FF"/>
<path d="M386.489 226.468V203.97L427.211 182.599L449.284 193.555L386.489 226.468ZM386.489 257.332V234.875L457.53 197.614L479.562 208.528L386.489 257.332ZM386.489 195.563V162.401L419.008 178.501L386.489 195.563ZM487.808 212.626L509.586 223.416L386.489 284.139V265.737L487.808 212.626Z" fill="#E6F0FF"/>
<path d="M465.435 141.101L432.834 124.205L465.267 108.188L465.435 141.101ZM424.548 128.262L460.913 147.122L423.827 165.565L386.489 147.039L424.548 128.262ZM432.197 169.705L465.518 153.145L465.688 186.308L432.197 169.705ZM473.051 153.396L509.588 172.34V208.096L473.221 190.071L473.051 153.396ZM472.964 141.101L472.754 104.507L509.584 86.3159V122.867L472.964 141.101ZM477.322 147.248L509.586 131.188V163.933L477.322 147.248Z" fill="#E6F0FF"/>
<path d="M400.91 319.612C395.837 322.413 390.762 325.256 386.491 327.599V300.416L412.413 313.254C408.818 315.22 404.886 317.437 400.91 319.612ZM468.565 378.829L434.651 360.595L468.565 343.115V378.829ZM386.489 377.113V343.156L418.712 360.47L386.489 377.113ZM388.646 335.88L420.784 317.437L422.601 318.317L422.771 354.197L388.646 335.88ZM463.16 384.348L430.557 400.45L430.387 366.742L463.16 384.348ZM414.06 408.562L386.489 422.155V393.551L414.06 408.562ZM476.054 377.992V344.828L509.588 361.43L476.054 377.992ZM422.856 366.702L423.068 404.13L422.223 404.548L386.87 385.268L422.856 366.702ZM430.13 322.036L462.268 337.97L430.3 354.489L430.13 322.036Z" fill="#E6F0FF"/>
<path fill-rule="evenodd" clip-rule="evenodd" d="M250.245 353.145V231.408L373.342 292.131L250.245 353.145ZM342.77 292.38L262.044 250.059V334.912L342.77 292.38ZM269.53 322.534V262.397L326.744 292.382L269.53 322.534ZM301.751 292.256L281.201 281.468V303.088L301.751 292.256Z" fill="#E6F0FF"/>
<path fill-rule="evenodd" clip-rule="evenodd" d="M522.734 208.053V86.3154L645.831 147.038L522.734 208.053ZM615.259 147.288L534.533 104.967V189.819L615.259 147.288ZM542.02 177.442V117.305L599.234 147.289L542.02 177.442ZM574.241 147.164L553.691 136.376V157.996L574.241 147.164Z" fill="#E6F0FF"/>
<path fill-rule="evenodd" clip-rule="evenodd" d="M680.025 43.5328V101.159L703.41 113.455L662.519 133.738V12L702.522 31.6971L680.025 43.5328ZM687.513 52.2325V52.2316H687.511L687.513 52.2325ZM687.513 52.2325V96.6846L711.657 109.398L729.333 100.616V75.1066L687.513 52.2325ZM736.855 96.8934V75.4816L762.692 61.3883L785.611 72.7214L736.855 96.8934ZM691.484 45.9165L710.767 35.7954L754.491 57.3734L733.433 68.8322L691.484 45.9165Z" fill="#E6F0FF"/>
<path fill-rule="evenodd" clip-rule="evenodd" d="M131.507 193.933V251.56L154.891 263.855L114 284.138V162.4L154.003 182.097L131.507 193.933ZM138.995 202.633V202.632H138.993L138.995 202.633ZM138.995 202.633V247.085L163.138 259.798L180.815 251.016V225.507L138.995 202.633ZM188.337 247.294V225.882L214.174 211.789L237.093 223.122L188.337 247.294ZM142.965 196.317L162.248 186.196L205.973 207.774L184.915 219.232L142.965 196.317Z" fill="#E6F0FF"/>
</g>
</g>
<defs>
<clipPath id="clip0_101_1142">
<rect width="746" height="478" fill="white"/>
</clipPath>
</defs>
</svg>
