<svg width="18" height="17" viewBox="0 0 18 17" fill="none" xmlns="http://www.w3.org/2000/svg">
<g clip-path="url(#clip0_935_407)">
<path d="M5.47861 5.43443C5.40607 6.20817 5.35516 7.57751 5.81203 8.16036C5.81203 8.16036 5.59696 6.65613 7.52497 4.76885C8.30126 4.0091 8.4807 2.97574 8.20963 2.20072C8.05564 1.76167 7.7744 1.39897 7.53006 1.14572C7.38752 0.996829 7.49697 0.751215 7.7044 0.760123C8.9592 0.816118 10.9928 1.16481 11.8569 3.33334C12.2362 4.28526 12.2642 5.26899 12.0835 6.26926C11.9689 6.90811 11.5617 8.32835 12.4907 8.50269C13.1537 8.62741 13.4744 8.10055 13.6182 7.72131C13.678 7.56351 13.8855 7.52406 13.9975 7.65004C15.1174 8.92393 15.2128 10.4243 14.9812 11.716C14.5332 14.2129 12.0046 16.0302 9.49242 16.0302C6.35416 16.0302 3.85603 14.2345 3.20827 10.9843C2.94738 9.67222 3.07973 7.0761 5.10319 5.24354C5.25335 5.10609 5.49897 5.22826 5.47861 5.43443Z" fill="url(#paint0_radial_935_407)"/>
<path d="M10.6391 10.1036C9.4823 8.61462 10.0002 6.91569 10.284 6.23866C10.3222 6.14957 10.2204 6.06558 10.1402 6.1203C9.64264 6.45882 8.62328 7.25547 8.1486 8.37664C7.50593 9.89232 7.55174 10.6343 7.93225 11.5404C8.16132 12.0863 7.89535 12.2021 7.76172 12.2225C7.63192 12.2428 7.51229 12.1563 7.41685 12.0659C7.14227 11.8023 6.9466 11.4674 6.85181 11.0988C6.83145 11.0199 6.72836 10.9982 6.68128 11.0631C6.32495 11.5556 6.14042 12.3459 6.13151 12.9046C6.10351 14.6315 7.53011 16.0314 9.25577 16.0314C11.4307 16.0314 13.0151 13.6262 11.7654 11.6154C11.4027 11.03 11.0616 10.647 10.6391 10.1036Z" fill="url(#paint1_radial_935_407)"/>
</g>
<defs>
<radialGradient id="paint0_radial_935_407" cx="0" cy="0" r="1" gradientUnits="userSpaceOnUse" gradientTransform="translate(8.87085 16.0698) rotate(-179.751) scale(8.98307 14.7394)">
<stop offset="0.314" stop-color="#FF9800"/>
<stop offset="0.662" stop-color="#FF6D00"/>
<stop offset="0.972" stop-color="#F44336"/>
</radialGradient>
<radialGradient id="paint1_radial_935_407" cx="0" cy="0" r="1" gradientUnits="userSpaceOnUse" gradientTransform="translate(9.37539 7.13055) rotate(90.5787) scale(9.39905 7.07349)">
<stop offset="0.214" stop-color="#FFF176"/>
<stop offset="0.328" stop-color="#FFF27D"/>
<stop offset="0.487" stop-color="#FFF48F"/>
<stop offset="0.672" stop-color="#FFF7AD"/>
<stop offset="0.793" stop-color="#FFF9C4"/>
<stop offset="0.822" stop-color="#FFF8BD" stop-opacity="0.804"/>
<stop offset="0.863" stop-color="#FFF6AB" stop-opacity="0.529"/>
<stop offset="0.91" stop-color="#FFF38D" stop-opacity="0.209"/>
<stop offset="0.941" stop-color="#FFF176" stop-opacity="0"/>
</radialGradient>
<clipPath id="clip0_935_407">
<rect width="16.2894" height="16.2894" fill="white" transform="translate(0.953247 0.251099)"/>
</clipPath>
</defs>
</svg>
