<svg width="13" height="12" viewBox="0 0 13 12" fill="none" xmlns="http://www.w3.org/2000/svg">
<path d="M6.5 6C5.675 6 4.96875 5.70625 4.38125 5.11875C3.79375 4.53125 3.5 3.825 3.5 3C3.5 2.175 3.79375 1.46875 4.38125 0.88125C4.96875 0.29375 5.675 0 6.5 0C7.325 0 8.03125 0.29375 8.61875 0.88125C9.20625 1.46875 9.5 2.175 9.5 3C9.5 3.825 9.20625 4.53125 8.61875 5.11875C8.03125 5.70625 7.325 6 6.5 6ZM0.5 12V9.9C0.5 9.475 0.6095 9.0845 0.8285 8.7285C1.0475 8.3725 1.338 8.1005 1.7 7.9125C2.475 7.525 3.2625 7.2345 4.0625 7.041C4.8625 6.8475 5.675 6.7505 6.5 6.75C7.325 6.75 8.1375 6.847 8.9375 7.041C9.7375 7.235 10.525 7.5255 11.3 7.9125C11.6625 8.1 11.9532 8.372 12.1722 8.7285C12.3912 9.085 12.5005 9.4755 12.5 9.9V12H0.5Z" fill="#9C9A9A"/>
</svg>
